<?xml version="1.0" encoding="UTF-8" standalone="no"?>
<!DOCTYPE svg PUBLIC "-//W3C//DTD SVG 1.1//EN" "http://www.w3.org/Graphics/SVG/1.1/DTD/svg11.dtd">
<svg width="100%" height="100%" viewBox="0 0 480 264" version="1.1" xmlns="http://www.w3.org/2000/svg" xmlns:xlink="http://www.w3.org/1999/xlink" xml:space="preserve" xmlns:serif="http://www.serif.com/" style="fill-rule:evenodd;clip-rule:evenodd;">
    <g id="canvas-strokes" transform="matrix(1,0,0,1,-338.755,-219.927)">
        <path d="M394.12,237.88C393.06,238.66 392.46,239.42 392.03,241.79C391.61,244.15 392.19,245.72 391.98,249.72C391.77,253.71 391.7,256.18 390.97,261.77C390.23,267.37 389.73,270.74 388.29,277.69C386.86,284.64 385.86,288.59 383.8,296.52C381.75,304.45 380.49,308.81 378,317.33C375.52,325.86 373.93,330.66 371.37,339.14C368.8,347.62 367.48,352.14 365.18,359.73C362.88,367.32 361.72,371.17 359.86,377.1C357.99,383.04 357.16,385.61 355.84,389.41C354.51,393.22 353.66,394.2 353.24,396.12C352.82,398.03 353.56,398.38 353.74,399.01C353.92,399.64 354.05,399.07 354.12,399.25C354.2,399.43 353.83,399.74 354.13,399.92C354.43,400.1 354.83,400.55 355.62,400.15C356.42,399.74 357.16,399.77 358.13,397.9C359.09,396.04 359.4,394.78 360.45,390.82C361.5,386.86 361.82,384.15 363.37,378.11C364.91,372.06 366.01,368.23 368.17,360.61C370.33,352.98 371.63,348.47 374.16,339.98C376.7,331.5 378.3,326.7 380.86,318.18C383.42,309.66 384.72,305.3 386.96,297.37C389.21,289.45 390.29,285.5 392.08,278.56C393.87,271.63 394.59,268.3 395.91,262.68C397.23,257.06 397.99,254.61 398.69,250.47C399.4,246.34 399.7,244.54 399.43,242.02C399.16,239.51 398.39,238.71 397.33,237.88C396.27,237.05 395.18,237.1 394.12,237.88" style="fill-rule:nonzero;stroke:black;stroke-width:1px;"/>
        <path d="M343.11,245.18C344.1,245.85 344.71,245.99 346.72,245.69C348.73,245.39 349.77,244.87 353.16,243.69C356.55,242.5 358.73,241.23 363.67,239.76C368.6,238.28 371.74,237.65 377.82,236.32C383.91,234.99 387.53,234.28 394.11,233.11C400.68,231.94 404.23,231.36 410.71,230.46C417.18,229.57 420.76,229.09 426.47,228.63C432.19,228.16 434.91,227.99 439.3,228.13C443.68,228.27 445.53,228.75 448.4,229.32C451.28,229.9 452.21,230.46 453.68,231.02C455.14,231.59 455.18,231.76 455.72,232.16C456.27,232.56 456.1,232.66 456.42,233.01C456.73,233.36 456.59,233.78 457.32,233.9C458.04,234.03 459.36,234.09 460.03,233.64C460.69,233.18 460.75,232.6 460.65,231.64C460.54,230.68 460.36,230.06 459.5,228.85C458.64,227.64 458.35,226.72 456.34,225.59C454.32,224.45 452.84,223.64 449.42,223.17C446,222.71 443.91,223 439.23,223.25C434.56,223.51 431.88,223.79 426.06,224.46C420.25,225.12 416.68,225.64 410.16,226.58C403.63,227.52 400.08,228.11 393.44,229.16C386.81,230.22 383.19,230.85 376.98,231.85C370.76,232.86 367.57,233.29 362.36,234.2C357.15,235.11 354.56,235.43 350.92,236.4C347.28,237.37 345.98,237.87 344.16,239.06C342.33,240.24 342.01,241.1 341.8,242.33C341.59,243.55 342.13,244.5 343.11,245.18" style="fill-rule:nonzero;stroke:black;stroke-width:1px;"/>
        <path d="M485.11,309.51C484.74,308.03 483.67,306.86 481.62,305.54C479.56,304.21 478.03,303.26 474.82,302.89C471.61,302.53 469.31,302.76 465.58,303.71C461.85,304.67 460.05,305.59 456.17,307.67C452.3,309.75 450.24,310.98 446.2,314.12C442.17,317.25 439.88,319.38 435.98,323.33C432.08,327.28 429.9,329.58 426.71,333.86C423.52,338.14 422.16,340.58 420.02,344.73C417.89,348.87 416.48,350.96 416.02,354.6C415.56,358.24 415.98,360.39 417.72,362.9C419.46,365.41 421.41,366.76 424.7,367.16C427.99,367.55 430.08,366.64 434.17,364.86C438.25,363.08 440.5,361.58 445.14,358.26C449.79,354.94 452.63,352.58 457.41,348.27C462.19,343.96 464.7,341.2 469.03,336.71C473.37,332.22 475.56,329.72 479.09,325.82C482.62,321.91 485.14,320.04 486.69,317.18C488.24,314.32 487.84,312.55 486.83,311.53C485.81,310.51 483.72,310.41 481.61,312.09C479.5,313.77 478.47,316.04 476.29,319.92C474.12,323.81 472.63,326.77 470.73,331.51C468.84,336.25 467.81,339.11 466.83,343.63C465.84,348.15 465.2,350.42 465.79,354.11C466.39,357.79 467.31,359.86 469.81,362.06C472.3,364.27 474.39,365.15 478.28,365.14C482.16,365.13 484.49,364.04 489.25,362.02C494.01,359.99 496.66,358.33 502.08,355.04C507.5,351.74 511.06,349.32 516.34,345.53C521.63,341.74 524.65,339.35 528.51,336.08C532.36,332.81 534.57,331.04 535.6,329.2C536.62,327.36 535.6,326.2 533.64,326.9C531.69,327.6 529.81,329.73 525.82,332.72C521.84,335.7 518.95,338.17 513.72,341.82C508.49,345.46 504.96,347.92 499.66,350.94C494.36,353.95 491.53,355.34 487.22,356.91C482.92,358.48 480.82,358.63 478.12,358.78C475.42,358.93 474.93,358.77 473.73,357.67C472.52,356.57 472.29,355.84 472.09,353.3C471.89,350.76 471.79,348.82 472.72,344.98C473.64,341.13 474.73,338.37 476.71,334.07C478.69,329.78 480.57,327.14 482.64,323.49C484.7,319.84 486.33,318.21 487.03,315.81C487.72,313.41 487.14,311.93 486.1,311.49C485.05,311.05 483.93,311.39 481.78,313.62C479.64,315.86 478.55,318.66 475.38,322.68C472.2,326.69 470.09,329.28 465.9,333.72C461.71,338.16 459.17,340.84 454.43,344.87C449.7,348.91 446.76,351.07 442.23,353.9C437.7,356.73 435.22,357.7 431.77,359.02C428.31,360.34 426.87,360.29 424.95,360.49C423.03,360.68 422.7,360.98 422.17,360.01C421.64,359.03 421.75,358.2 422.3,355.62C422.85,353.04 423.24,350.86 424.93,347.1C426.62,343.34 427.82,340.86 430.75,336.82C433.67,332.78 435.81,330.57 439.55,326.91C443.29,323.24 445.58,321.21 449.44,318.49C453.31,315.78 455.38,314.77 458.88,313.33C462.38,311.89 463.98,311.53 466.93,311.29C469.88,311.06 471.26,311.8 473.65,312.14C476.03,312.49 476.9,312.85 478.85,313.01C480.81,313.17 482.19,313.65 483.44,312.95C484.69,312.25 485.47,310.99 485.11,309.51" style="fill-rule:nonzero;stroke:black;stroke-width:1px;"/>
        <path d="M542.46,313.04C541.46,313.15 541.21,313.05 540.07,314.13C538.94,315.22 537.72,315.85 536.78,318.46C535.84,321.08 535.92,323.33 535.36,327.2C534.79,331.08 534.31,333.65 533.96,337.85C533.62,342.06 533.11,344.43 533.63,348.23C534.16,352.04 534.56,354.17 536.61,356.88C538.65,359.58 540.51,360.98 543.85,361.76C547.19,362.53 549.37,362.08 553.31,360.76C557.26,359.44 559.28,357.98 563.57,355.15C567.85,352.32 570.33,350.33 574.75,346.6C579.16,342.86 581.67,340.37 585.64,336.47C589.61,332.56 591.7,330.34 594.6,327.08C597.49,323.82 599.09,322.45 600.1,320.16C601.11,317.87 600.56,316.54 599.64,315.62C598.72,314.71 597.2,314.44 595.51,315.58C593.82,316.71 592.91,318.03 591.17,321.28C589.44,324.54 588.87,326.87 586.83,331.86C584.79,336.84 583.61,339.84 580.99,346.22C578.36,352.59 576.82,356.24 573.73,363.74C570.63,371.23 568.93,375.36 565.51,383.69C562.1,392.02 560.33,396.74 556.65,405.4C552.97,414.05 550.97,418.74 547.12,426.97C543.28,435.21 541.18,439.53 537.43,446.59C533.67,453.64 531.71,457.13 528.34,462.24C524.98,467.36 522.99,469.4 520.59,472.16C518.19,474.92 517.27,475.54 516.34,476.06C515.42,476.58 515.95,476.57 515.96,474.76C515.97,472.94 516.08,470.84 516.38,467C516.69,463.16 517.24,459.78 517.48,455.56C517.73,451.34 518.39,447.96 517.6,445.9C516.81,443.83 514.94,443.49 513.53,445.24C512.12,446.99 511.42,450.34 510.54,454.64C509.65,458.95 509.09,462.33 509.11,466.74C509.12,471.15 508.99,474.07 510.61,476.69C512.23,479.32 514.49,480.16 517.19,479.88C519.89,479.6 521.27,478.43 524.11,475.28C526.96,472.13 528.21,469.61 531.41,464.15C534.61,458.68 536.46,455.18 540.1,447.98C543.75,440.78 545.83,436.44 549.64,428.14C553.46,419.84 555.47,415.15 559.19,406.48C562.9,397.82 564.7,393.11 568.22,384.82C571.74,376.54 573.5,372.44 576.79,365.06C580.09,357.67 581.71,354.04 584.71,347.89C587.71,341.74 589.16,338.87 591.8,334.3C594.45,329.72 596.18,328.13 597.96,325.02C599.73,321.9 600.49,320.66 600.67,318.71C600.85,316.77 599.99,315.7 598.85,315.27C597.72,314.85 596.71,314.97 594.99,316.59C593.26,318.22 592.81,320.15 590.23,323.42C587.65,326.69 585.84,329.09 582.1,332.95C578.36,336.81 575.83,339.23 571.53,342.7C567.22,346.18 564.61,347.97 560.57,350.34C556.52,352.7 554.36,353.57 551.29,354.52C548.22,355.47 547.06,355.39 545.22,355.1C543.39,354.81 543.02,354.57 542.13,353.05C541.24,351.53 540.95,350.35 540.79,347.48C540.62,344.62 540.71,342.38 541.29,338.71C541.87,335.05 542.53,332.6 543.68,329.16C544.84,325.72 546.45,324.15 547.06,321.52C547.68,318.88 547.16,317.57 546.76,315.98C546.37,314.38 545.93,314.14 545.07,313.55C544.21,312.96 543.46,312.92 542.46,313.04" style="fill-rule:nonzero;stroke:black;stroke-width:1px;"/>
        <path d="M654.33,249.77C653.29,250 652.84,250.16 651.9,251.68C650.97,253.21 650.73,253.98 649.66,257.41C648.59,260.83 648.34,263.46 646.55,268.81C644.76,274.15 643.46,277.58 640.71,284.13C637.95,290.69 636.03,294.54 632.77,301.59C629.52,308.63 627.49,312.61 624.43,319.37C621.36,326.14 619.74,329.53 617.44,335.42C615.13,341.31 613.97,344.12 612.9,348.82C611.82,353.53 611.2,355.67 612.07,358.94C612.93,362.2 614.42,363.73 617.21,365.15C620,366.57 622.08,366.77 626.03,366.04C629.97,365.32 632.72,363.76 636.92,361.53C641.11,359.3 643.62,357.44 647,354.88C650.39,352.33 652.88,350.58 653.83,348.74C654.79,346.9 653.82,345.5 651.77,345.68C649.73,345.86 647.21,347.68 643.61,349.64C640.01,351.6 637.61,353.53 633.77,355.49C629.92,357.44 627.29,358.46 624.39,359.42C621.49,360.39 620.63,360.67 619.27,360.32C617.91,359.97 617.94,359.8 617.57,357.68C617.21,355.56 616.74,353.91 617.43,349.72C618.12,345.54 618.98,342.53 621.02,336.75C623.06,330.97 624.62,327.53 627.62,320.81C630.61,314.08 632.64,310.11 636.01,303.11C639.37,296.11 641.35,292.28 644.45,285.82C647.56,279.36 649.04,276 651.52,270.82C653.99,265.64 655.49,263.38 656.83,259.92C658.16,256.46 658.15,255.4 658.21,253.52C658.26,251.64 657.89,251.28 657.11,250.53C656.34,249.78 655.37,249.54 654.33,249.77" style="fill-rule:nonzero;stroke:black;stroke-width:1px;"/>
        <path d="M718.16,310.32C718.73,309.23 718.88,308.42 718.07,307.1C717.25,305.79 716.26,304.5 714.1,303.73C711.94,302.96 710.1,302.7 707.25,303.28C704.4,303.86 702.83,304.66 699.84,306.62C696.85,308.57 695.28,310.17 692.3,313.05C689.32,315.94 687.75,317.61 684.93,321.04C682.1,324.48 680.44,326.45 678.18,330.22C675.93,333.99 674.58,336.07 673.66,339.89C672.74,343.72 672.4,346.13 673.58,349.36C674.76,352.59 676.34,354.62 679.55,356.04C682.76,357.46 685.26,357.29 689.63,356.44C694.01,355.6 696.71,354.29 701.43,351.8C706.14,349.31 708.8,347.42 713.21,343.98C717.62,340.54 719.92,338.43 723.47,334.59C727.02,330.76 728.76,328.61 730.97,324.79C733.19,320.97 734.13,319 734.54,315.5C734.95,312.01 734.45,310.06 733.04,307.29C731.62,304.53 730.15,303.21 727.46,301.68C724.77,300.16 722.63,299.67 719.58,299.68C716.52,299.69 714.43,300.44 712.18,301.72C709.93,303 708.81,304.56 708.33,306.08C707.86,307.6 708.51,308.6 709.79,309.33C711.08,310.06 712.7,309.83 714.76,309.73C716.82,309.62 718.13,309.08 720.09,308.8C722.05,308.53 723.09,308.07 724.55,308.36C726.02,308.64 726.72,308.95 727.41,310.23C728.1,311.51 728.28,312.37 728.01,314.75C727.74,317.12 727.72,318.83 726.06,322.11C724.4,325.39 722.9,327.61 719.71,331.16C716.52,334.72 714.25,336.79 710.09,339.9C705.92,343.02 703.21,344.68 698.88,346.74C694.55,348.8 691.81,349.56 688.44,350.2C685.06,350.84 683.72,350.48 681.99,349.93C680.26,349.37 680.14,349.09 679.78,347.42C679.43,345.74 679.43,344.36 680.2,341.56C680.97,338.77 681.71,336.72 683.63,333.46C685.56,330.19 687.14,328.23 689.82,325.24C692.5,322.26 694.14,320.72 697.03,318.53C699.92,316.34 701.79,315.52 704.28,314.3C706.78,313.08 707.97,312.92 709.49,312.43C711.01,311.93 711.23,311.83 711.89,311.84C712.54,311.84 712.11,312.3 712.78,312.45C713.44,312.6 714.14,312.99 715.22,312.56C716.3,312.14 717.59,311.41 718.16,310.32" style="fill-rule:nonzero;stroke:black;stroke-width:1px;"/>
        <path d="M767.46,313.82C766.32,313.84 765.79,314 764.47,315.19C763.14,316.37 762.08,317.21 760.84,319.76C759.6,322.31 759.7,324.46 758.29,327.91C756.87,331.36 755.68,333.61 753.78,337.01C751.89,340.42 749.83,342.12 748.82,344.95C747.81,347.78 748,349.48 748.73,351.16C749.46,352.84 750.67,353.68 752.49,353.34C754.31,352.99 755.49,352.17 757.84,349.44C760.19,346.71 761.22,343.98 764.25,339.69C767.28,335.4 769.23,332.47 772.99,327.98C776.74,323.5 779.08,321.06 783.03,317.27C786.97,313.49 789.18,311.65 792.71,309.04C796.25,306.43 798.07,305.51 800.7,304.22C803.33,302.94 804.19,302.81 805.87,302.62C807.56,302.43 808.1,303.05 809.13,303.28C810.15,303.52 810.31,303.58 811.01,303.78C811.71,303.98 811.82,304.46 812.61,304.29C813.4,304.11 814.58,303.79 814.96,302.91C815.34,302.03 815.27,301 814.49,299.88C813.72,298.76 812.94,298.04 811.08,297.33C809.22,296.61 807.84,296.03 805.19,296.31C802.54,296.59 800.95,297.01 797.82,298.75C794.7,300.49 793.16,301.99 789.54,305.02C785.93,308.05 783.81,309.95 779.75,313.88C775.69,317.81 773.33,320.29 769.24,324.67C765.15,329.05 762.84,331.79 759.31,335.79C755.78,339.79 753.58,341.72 751.6,344.67C749.61,347.61 749.3,348.97 749.4,350.52C749.5,352.06 750.64,352.68 752.09,352.39C753.55,352.09 754.97,351.4 756.67,349.05C758.37,346.71 758.76,344.16 760.58,340.66C762.39,337.17 763.83,334.94 765.76,331.58C767.69,328.23 769.16,326.59 770.23,323.9C771.3,321.21 771.12,319.91 771.11,318.15C771.1,316.38 770.91,315.96 770.18,315.09C769.45,314.23 768.6,313.8 767.46,313.82" style="fill-rule:nonzero;stroke:black;stroke-width:1px;"/>
    </g>
</svg>
